<svg xmlns="http://www.w3.org/2000/svg" viewBox="0 0 230 280" width="230" height="280">
<defs><linearGradient id="g_hair2" x1="0" y1="0" x2="0" y2="1"><stop offset="0" stop-color="#F3EDE6"/><stop offset="1" stop-color="#E3CDBE"/></linearGradient></defs>
<rect width="230" height="280" fill="url(#g_hair2)"/>
<circle cx="200" cy="30" r="64" fill="#FFFFFF" opacity="0.28"/>
<circle cx="20" cy="250" r="80" fill="#FFFFFF" opacity="0.18"/>
<g transform="translate(76 98) rotate(-10) scale(1)"><path d="M0 -40 C22 -22 -22 -6 0 12 C22 30 -22 42 0 58" stroke="#B98A62" stroke-width="12" stroke-linecap="round" stroke-linejoin="round" fill="none"/></g><g transform="translate(150 84) rotate(30) scale(1)"><path d="M-6 0 L-38 -34" stroke="#C9C4C0" stroke-width="5" stroke-linecap="round" stroke-linejoin="round" fill="none"/><path d="M-6 0 L-38 34" stroke="#C9C4C0" stroke-width="5" stroke-linecap="round" stroke-linejoin="round" fill="none"/><circle cx="34" cy="-16" r="11" fill="none" stroke="#E2637F" stroke-width="5"/><circle cx="34" cy="16" r="11" fill="none" stroke="#E2637F" stroke-width="5"/><path d="M24 -12 L-6 0 L24 12" stroke="#C9C4C0" stroke-width="5" stroke-linecap="round" stroke-linejoin="round" fill="none"/><circle cx="-6" cy="0" r="4" fill="#5A514D"/></g><g transform="translate(160 150) rotate(0) scale(0.9)"><path d="M-34 0 h68 a34 26 0 0 1 -68 0z" fill="#FFFFFF"/><ellipse cx="0" cy="0" rx="34" ry="8" fill="#E2637F"/><path d="M8 -6 L42 -46" stroke="#B98A62" stroke-width="6" stroke-linecap="round" stroke-linejoin="round" fill="none"/><path d="M38 -52 l10 10" stroke="#E2637F" stroke-width="10" stroke-linecap="round" stroke-linejoin="round" fill="none"/></g><g transform="translate(190 38) rotate(0) scale(1)"><path d="M0 -10 Q1.5 -1.5 10 0 Q1.5 1.5 0 10 Q-1.5 1.5 -10 0 Q-1.5 -1.5 0 -10Z" fill="#E2637F"/></g>
</svg>
