<svg xmlns="http://www.w3.org/2000/svg" viewBox="0 0 230 280" width="230" height="280">
<defs><linearGradient id="g_personalcolor1" x1="0" y1="0" x2="0" y2="1"><stop offset="0" stop-color="#F3EDE6"/><stop offset="1" stop-color="#F1D5DA"/></linearGradient></defs>
<rect width="230" height="280" fill="url(#g_personalcolor1)"/>
<circle cx="200" cy="30" r="64" fill="#FFFFFF" opacity="0.28"/>
<circle cx="20" cy="250" r="80" fill="#FFFFFF" opacity="0.18"/>
<g transform="translate(112 108) rotate(0) scale(1)"><path d="M-42 -4 Q-46 -58 0 -60 Q46 -58 42 -4 L48 74 Q0 88 -48 74Z" fill="#B98A62"/><path d="M-14 36 L-14 64 Q0 72 14 64 L14 36Z" fill="#F3D3C2"/><ellipse cx="0" cy="0" rx="36" ry="44" fill="#F3D3C2"/><path d="M-36 -8 Q-32 -50 0 -48 Q32 -50 36 -8 Q20 -32 0 -28 Q-20 -32 -36 -8Z" fill="#B98A62"/><path d="M-36 -20 Q0 -40 36 -20 L34 -12 Q0 -30 -34 -12Z" fill="#FFFFFF"/><path d="M-19 6 q8 6 16 0 M3 6 q8 6 16 0" stroke="#2B2523" stroke-width="2.2" stroke-linecap="round" stroke-linejoin="round" fill="none"/><path d="M-9 26 q9 8 18 0 q-9 -4 -18 0z" fill="#D49A9A"/></g><rect x="46" y="44" width="136" height="150" rx="16" fill="none" stroke="#E2637F" stroke-width="2.4" stroke-dasharray="6 7"/><g transform="translate(196 50) rotate(0) scale(1)"><path d="M0 -10 Q1.5 -1.5 10 0 Q1.5 1.5 0 10 Q-1.5 1.5 -10 0 Q-1.5 -1.5 0 -10Z" fill="#E2637F"/></g>
</svg>
